<svg xmlns="http://www.w3.org/2000/svg" width="1024" height="1024" viewBox="0 0 1024 1024">
<g>
<path d="M 491.00 868.39 C467.59,865.66 459.34,864.46 446.82,861.93 C366.24,845.63 294.77,801.06 240.09,733.00 C204.36,688.53 179.34,634.26 168.13,576.96 C162.28,547.03 161.58,539.32 161.54,504.00 C161.50,467.70 162.39,457.94 168.60,427.15 C187.64,332.67 244.26,248.81 326.00,194.01 C373.13,162.41 419.89,145.04 480.00,136.81 C494.54,134.82 544.17,135.15 560.00,137.34 C577.62,139.78 595.11,143.49 612.20,148.43 C626.19,152.48 627.24,152.97 634.12,158.59 C641.48,164.61 708.68,222.69 730.50,241.90 C780.90,286.27 806.02,308.78 815.33,317.89 C825.09,327.45 826.68,329.54 831.46,339.00 C845.90,367.59 857.89,405.49 863.41,440.00 C867.42,465.01 868.34,479.68 867.68,507.94 C866.90,541.40 864.46,560.03 856.94,590.01 C836.35,672.00 791.41,743.00 728.00,793.72 C679.38,832.61 619.69,858.03 557.00,866.54 C545.16,868.15 499.85,869.42 491.00,868.39 ZM 551.00 854.59 C557.33,853.70 564.08,852.79 566.00,852.55 C567.92,852.31 573.45,851.19 578.29,850.06 C583.12,848.93 587.83,848.00 588.76,848.00 C589.69,848.00 593.61,847.05 597.47,845.90 C615.61,840.47 624.58,837.61 625.50,836.96 C626.05,836.58 628.30,835.69 630.50,834.99 C643.77,830.79 671.76,816.81 691.50,804.52 C725.81,783.18 763.80,746.81 788.07,712.08 C794.99,702.18 801.83,691.74 803.19,689.00 C803.87,687.62 805.38,684.92 806.55,683.00 C811.83,674.27 819.26,659.38 824.50,647.00 C827.64,639.58 830.79,632.15 831.50,630.50 C833.36,626.15 839.13,608.90 839.63,606.20 C839.87,604.93 840.71,602.23 841.50,600.20 C842.29,598.16 843.16,595.15 843.43,593.50 C843.70,591.85 844.83,587.12 845.93,583.00 C848.35,573.98 853.20,549.66 852.85,548.40 C852.71,547.91 853.25,541.65 854.05,534.50 C855.87,518.18 855.96,477.21 854.21,463.50 C853.50,458.00 852.76,451.63 852.57,449.35 C851.81,440.56 844.81,408.87 840.78,396.00 C836.44,382.15 833.83,374.38 832.54,371.50 C831.81,369.85 829.97,365.35 828.46,361.50 C826.96,357.65 824.80,352.70 823.67,350.50 C822.54,348.30 821.53,346.05 821.42,345.50 C821.31,344.95 819.35,341.05 817.07,336.84 C812.26,327.95 813.81,328.50 790.50,327.50 C764.10,326.37 736.28,319.84 716.00,310.02 C705.49,304.93 703.97,304.02 694.00,296.93 C672.68,281.76 655.39,259.14 643.55,230.92 C641.05,224.95 639.00,219.60 639.00,219.03 C639.00,218.47 638.12,215.42 637.04,212.25 C635.96,209.09 634.88,205.38 634.64,204.00 C634.39,202.62 633.30,197.90 632.21,193.50 C631.11,189.10 629.96,183.48 629.66,181.00 C629.35,178.52 628.60,174.21 628.00,171.41 L 626.90 166.32 L 618.20 163.55 C613.42,162.03 607.57,160.16 605.22,159.39 C602.86,158.63 600.23,158.00 599.38,158.00 C598.53,158.00 594.60,157.11 590.66,156.03 C586.72,154.94 577.04,152.92 569.15,151.53 C542.51,146.83 492.46,147.04 465.00,151.95 C449.88,154.66 435.96,157.78 428.35,160.17 C424.97,161.23 421.14,162.29 419.84,162.52 C416.76,163.08 394.95,171.11 388.50,174.06 C378.42,178.67 355.43,190.33 352.85,192.14 C351.39,193.16 349.97,194.00 349.70,194.00 C348.25,194.00 315.77,215.75 314.00,217.90 C313.73,218.24 309.00,222.07 303.50,226.42 C281.43,243.85 253.01,275.09 235.65,301.00 C231.41,307.33 227.60,312.95 227.19,313.50 C226.77,314.05 223.41,319.76 219.73,326.19 C212.26,339.22 205.88,352.33 200.52,365.63 C198.55,370.51 196.54,375.23 196.04,376.12 C195.55,377.01 194.62,379.71 193.98,382.12 C193.34,384.53 192.21,387.85 191.46,389.50 C188.63,395.77 181.00,427.11 178.20,444.00 C168.84,500.36 173.93,565.93 191.71,618.00 C206.19,660.41 225.76,695.70 254.16,730.62 C271.69,752.19 305.61,783.64 325.00,796.32 C328.02,798.30 331.62,800.83 333.00,801.94 C334.38,803.05 335.88,803.97 336.35,803.98 C336.81,803.99 338.50,804.93 340.10,806.07 C349.72,812.92 377.79,827.06 394.91,833.68 C418.60,842.84 452.42,851.67 471.00,853.55 C474.58,853.92 482.45,854.81 488.50,855.55 C502.56,857.27 535.48,856.76 551.00,854.59 ZM 454.24 831.87 C447.36,829.23 439.63,821.68 436.45,814.49 C432.78,806.18 432.97,795.94 436.95,788.22 C441.97,778.50 447.53,773.61 456.86,770.68 C463.90,768.48 468.80,768.56 475.75,771.00 C481.92,773.17 491.22,781.20 493.43,786.28 L 494.65 789.06 L 498.07 784.03 C499.96,781.27 501.80,779.00 502.17,779.00 C502.54,779.00 503.76,780.49 504.89,782.32 C506.01,784.14 507.85,786.46 508.97,787.47 C510.09,788.48 511.00,789.95 511.00,790.73 C511.00,792.17 503.92,802.03 498.96,807.50 C497.46,809.15 495.68,812.24 495.00,814.37 C493.16,820.15 483.56,829.27 476.58,831.89 C469.43,834.56 461.21,834.55 454.24,831.87 ZM 471.28 819.42 C477.77,817.21 482.59,811.65 483.45,805.36 C484.81,795.46 481.46,788.56 473.50,784.89 C468.02,782.36 462.84,782.54 457.07,785.46 C448.70,789.71 445.29,798.92 448.54,808.50 C450.63,814.65 458.38,820.46 465.07,820.90 C465.94,820.95 468.73,820.29 471.28,819.42 ZM 557.00 833.33 C547.18,829.98 540.32,824.42 536.30,816.55 C534.90,813.83 528.06,804.83 521.08,796.55 C509.03,782.24 506.22,778.55 494.50,761.58 C473.98,731.88 463.12,714.29 458.90,703.92 C455.54,695.67 455.27,691.97 457.83,689.65 C461.74,686.12 462.77,686.98 474.00,703.00 C478.04,708.78 482.51,715.08 483.92,717.00 C485.33,718.92 488.59,723.65 491.15,727.50 C493.71,731.35 498.10,737.65 500.90,741.50 C503.69,745.35 508.28,751.84 511.10,755.93 C513.91,760.01 516.73,763.92 517.36,764.60 C517.99,765.28 522.10,771.03 526.50,777.37 C530.90,783.70 534.73,788.91 535.01,788.94 C535.28,788.97 536.15,787.56 536.93,785.80 C538.96,781.22 545.69,774.85 551.50,772.01 C558.20,768.74 569.30,768.62 576.17,771.74 C584.20,775.39 593.19,784.98 594.77,791.61 C595.65,795.28 595.67,808.65 594.81,812.21 C593.87,816.04 588.68,823.29 584.25,826.94 C579.02,831.26 571.10,834.02 564.21,833.92 C561.07,833.88 557.83,833.61 557.00,833.33 ZM 569.36 819.77 C582.57,815.82 586.96,798.07 577.07,788.66 C570.45,782.36 563.25,781.44 555.50,785.89 C541.45,793.95 543.50,813.69 559.03,819.89 C562.40,821.23 564.57,821.21 569.36,819.77 ZM 517.38 775.77 C518.21,774.44 518.09,773.66 516.84,772.42 C513.78,769.35 508.40,773.37 511.15,776.67 C512.65,778.49 515.98,778.01 517.38,775.77 ZM 523.20 766.47 C518.08,760.04 517.07,757.69 518.96,756.53 C519.49,756.20 522.07,752.69 524.70,748.72 C527.33,744.75 529.77,741.28 530.11,741.00 C530.46,740.72 532.81,737.35 535.34,733.50 C537.87,729.65 541.99,723.58 544.48,720.00 C546.98,716.42 551.47,709.90 554.46,705.50 C566.88,687.21 567.40,686.72 571.40,689.34 C573.23,690.54 574.00,691.92 574.00,694.00 C574.00,698.08 570.02,708.28 564.97,717.11 C562.65,721.17 559.93,725.93 558.93,727.68 C556.71,731.56 551.39,739.83 544.23,750.50 C541.28,754.90 536.76,761.76 534.18,765.74 C531.61,769.73 529.25,772.99 528.95,772.99 C528.65,773.00 526.06,770.06 523.20,766.47 ZM 394.73 752.31 C394.47,751.86 393.47,749.08 392.51,746.11 C390.31,739.38 385.00,733.35 380.11,732.03 C375.55,730.80 372.49,728.64 373.34,727.25 C373.70,726.68 376.24,725.40 378.98,724.41 C385.63,722.02 390.37,716.93 392.85,709.50 C393.96,706.20 395.45,703.50 396.18,703.50 C396.90,703.50 398.44,706.18 399.61,709.46 C402.26,716.94 407.25,722.12 414.22,724.62 C417.27,725.72 419.50,727.13 419.50,727.96 C419.50,728.76 417.22,730.32 414.39,731.45 C411.58,732.58 408.14,734.42 406.76,735.55 C404.04,737.76 399.22,746.49 398.65,750.22 C398.31,752.46 395.63,753.88 394.73,752.31 ZM 638.20 751.74 C637.62,751.04 636.22,747.98 635.08,744.94 C632.55,738.18 628.13,733.73 621.50,731.28 C618.74,730.27 616.50,728.81 616.50,728.03 C616.50,727.25 618.97,725.65 622.00,724.45 C629.43,721.52 633.58,717.26 635.52,710.58 C637.54,703.65 639.31,702.01 641.37,705.18 C642.20,706.46 643.12,708.80 643.40,710.39 C644.61,717.14 649.22,721.51 659.34,725.47 C664.01,727.30 663.71,728.98 658.35,731.00 C656.15,731.83 653.15,733.30 651.68,734.27 C648.73,736.23 644.17,742.59 643.56,745.59 C642.85,749.10 641.06,753.00 640.15,753.00 C639.65,753.00 638.77,752.43 638.20,751.74 ZM 333.75 728.02 C328.24,723.68 329.82,714.23 336.52,711.43 C340.45,709.79 343.37,710.57 346.69,714.14 C354.59,722.66 342.89,735.21 333.75,728.02 ZM 694.36 728.83 C690.18,726.80 688.55,718.52 691.50,714.30 C693.54,711.40 698.99,709.67 702.22,710.90 C703.61,711.42 705.70,713.07 706.87,714.56 C713.34,722.79 703.97,733.48 694.36,728.83 ZM 227.07 676.37 C224.70,673.34 224.65,673.05 225.99,669.52 C226.57,668.00 228.41,666.31 230.37,665.49 C237.05,662.70 237.00,663.18 237.00,596.54 C237.00,557.25 236.64,536.19 235.94,534.35 C235.36,532.82 232.66,529.22 229.94,526.35 C224.41,520.50 224.66,521.03 225.96,517.61 C226.95,515.00 231.55,512.21 238.50,510.00 C240.70,509.30 244.30,507.93 246.50,506.96 C248.70,505.99 251.40,504.96 252.50,504.67 C253.60,504.37 256.27,503.48 258.43,502.68 C261.30,501.63 263.13,501.50 265.19,502.21 C268.84,503.49 269.25,504.25 270.53,511.94 L 271.59 518.39 L 277.85 512.64 C291.38,500.20 308.26,497.66 324.73,505.58 C337.87,511.90 346.94,523.29 352.11,540.00 C354.21,546.75 354.43,549.35 354.37,566.00 C354.31,583.99 354.22,584.74 351.25,593.14 C344.09,613.43 331.05,626.51 312.58,631.93 C298.82,635.98 286.32,634.03 274.25,625.97 L 271.00 623.80 L 271.00 639.94 C271.00,654.06 271.25,656.57 272.98,659.97 C274.07,662.11 275.84,664.13 276.90,664.47 C281.09,665.80 284.00,669.06 284.00,672.42 C284.00,678.84 283.28,679.00 254.74,679.00 L 229.15 679.00 L 227.07 676.37 ZM 303.51 613.65 C306.27,612.36 309.66,609.78 311.04,607.91 C320.03,595.73 323.35,572.54 319.12,551.50 C317.03,541.10 314.28,535.06 309.14,529.67 C303.94,524.19 301.09,523.00 293.23,523.00 C287.27,523.00 285.88,523.37 282.76,525.75 C277.77,529.57 274.61,533.72 272.59,539.06 C271.10,543.03 270.92,547.00 271.19,570.16 L 271.50 596.71 L 275.01 603.61 C277.98,609.44 279.29,610.92 283.51,613.23 C289.95,616.74 296.56,616.88 303.51,613.65 ZM 494.07 676.37 C491.70,673.35 491.65,673.04 492.96,669.59 C493.53,668.11 495.41,666.44 497.50,665.56 C504.12,662.80 504.00,664.12 504.00,596.43 C504.00,528.77 504.31,531.87 496.98,526.69 C489.85,521.64 490.70,516.44 499.33,512.43 C502.17,511.10 505.20,510.02 506.05,510.01 C506.90,510.00 508.03,509.61 508.55,509.12 C509.07,508.64 512.42,507.23 516.00,505.98 C519.58,504.73 524.20,503.10 526.29,502.35 C529.57,501.17 530.47,501.19 533.08,502.54 C536.62,504.37 538.00,507.47 538.00,513.57 C538.00,516.00 538.36,518.00 538.80,518.00 C539.24,518.00 541.37,516.16 543.55,513.92 C554.46,502.65 571.83,498.23 586.17,503.06 C596.83,506.65 607.09,514.64 611.78,523.00 C618.29,534.60 619.86,538.66 621.55,548.25 C623.39,558.72 623.38,573.22 621.52,583.50 C618.90,597.95 613.81,608.28 604.60,617.83 C595.26,627.52 583.64,632.82 569.76,633.71 C562.35,634.19 560.00,633.93 554.32,632.01 C550.64,630.77 545.46,628.23 542.81,626.37 L 538.00 622.99 L 538.00 639.84 C538.00,655.75 538.13,656.90 540.28,660.10 C541.54,661.97 544.30,664.40 546.42,665.51 C552.09,668.47 553.10,672.71 549.19,677.25 C547.83,678.83 545.22,679.00 521.92,679.00 L 496.15 679.00 L 494.07 676.37 ZM 572.37 613.08 C578.50,609.28 584.30,600.84 585.51,593.95 C585.84,592.05 586.58,588.47 587.16,586.00 C588.56,579.95 588.57,561.81 587.17,555.00 C586.55,551.97 585.82,548.15 585.55,546.50 C584.41,539.55 578.77,530.76 572.24,525.75 C569.12,523.37 567.73,523.00 561.77,523.00 C553.76,523.00 551.08,524.17 545.39,530.17 C538.41,537.54 538.00,539.63 538.00,567.97 C538.00,591.83 538.10,593.20 540.41,599.56 C543.80,608.90 549.36,614.24 557.50,615.97 C561.51,616.83 568.51,615.47 572.37,613.08 ZM 388.28 631.72 C375.87,627.28 367.65,618.57 364.54,606.54 C362.66,599.26 362.63,595.97 364.37,589.50 C366.72,580.80 368.63,577.43 374.73,571.19 C381.42,564.36 388.16,560.84 400.00,558.01 C414.13,554.64 421.43,554.55 435.80,557.57 L 439.10 558.27 L 438.93 546.96 C438.84,540.75 438.38,534.32 437.91,532.68 C436.70,528.48 433.22,523.69 429.53,521.16 C425.13,518.15 415.06,518.11 410.88,521.08 C407.37,523.59 404.30,529.28 403.38,535.00 C402.24,542.17 395.68,548.00 388.76,548.00 C383.65,548.00 376.79,544.08 374.75,540.00 C365.40,521.28 394.14,499.76 426.50,501.24 C450.45,502.34 463.84,510.72 471.29,529.27 C473.25,534.16 473.43,536.95 473.94,571.84 L 474.50 609.18 L 476.86 611.09 C479.56,613.27 480.79,613.41 484.57,611.97 C493.61,608.54 495.41,618.79 487.08,626.31 C478.67,633.91 464.89,636.13 454.81,631.51 C448.89,628.80 446.13,626.28 443.58,621.22 L 441.92 617.95 L 434.88 623.45 C425.59,630.72 415.69,634.01 403.20,633.97 C396.79,633.95 392.86,633.36 388.28,631.72 ZM 430.59 608.44 C438.00,602.45 438.46,601.25 438.84,587.13 C439.23,572.80 439.31,572.97 431.81,571.14 C418.37,567.87 405.51,572.47 400.30,582.42 C399.32,584.30 398.78,587.99 398.80,592.78 C398.84,601.09 400.67,604.80 407.11,609.61 C410.20,611.92 411.22,612.12 418.66,611.82 C426.02,611.53 427.18,611.20 430.59,608.44 ZM 680.00 632.39 C652.00,624.88 635.46,601.49 635.52,569.50 C635.55,549.03 642.41,531.18 655.24,518.16 C668.78,504.42 690.86,497.95 708.54,502.55 C728.60,507.77 742.66,524.16 744.67,544.66 C745.18,549.91 744.95,551.35 743.09,554.36 C740.66,558.29 736.06,561.51 731.50,562.48 C729.85,562.83 724.22,564.19 719.00,565.50 C713.78,566.80 705.00,568.86 699.50,570.07 C687.97,572.61 672.96,576.71 672.13,577.53 C671.00,578.67 675.31,588.50 679.20,593.65 C686.89,603.84 696.96,608.43 710.31,607.84 C720.54,607.38 727.63,604.09 736.31,595.75 C739.60,592.59 742.80,590.00 743.42,590.00 C745.86,590.00 749.00,593.19 749.00,595.67 C749.00,597.07 747.56,600.92 745.80,604.22 C736.08,622.46 716.08,634.09 694.70,633.93 C689.64,633.90 683.03,633.20 680.00,632.39 ZM 675.93 560.56 C690.11,556.91 701.77,554.03 704.65,553.49 C709.34,552.59 711.51,549.62 711.46,544.15 C711.39,536.47 708.48,528.73 703.67,523.41 L 699.34 518.63 L 691.77 518.57 C684.75,518.50 683.92,518.72 680.36,521.60 C674.91,526.00 671.16,532.97 669.46,541.87 C667.94,549.82 667.52,560.18 668.67,561.33 C669.55,562.22 669.52,562.22 675.93,560.56 ZM 757.20 630.25 C756.08,629.29 754.88,627.48 754.51,626.23 C753.85,623.97 755.08,622.48 763.68,615.08 C767.87,611.49 768.09,607.85 767.79,549.75 C767.46,487.66 767.80,490.43 759.93,485.46 C752.57,480.81 752.48,474.48 759.73,471.37 C785.18,460.48 791.40,458.00 793.25,458.00 C794.30,458.00 796.47,459.32 798.08,460.92 L 801.00 463.85 L 801.00 537.54 L 801.00 611.24 L 805.25 615.15 C807.59,617.30 810.51,619.93 811.75,620.99 C814.67,623.51 814.60,626.49 811.55,629.55 L 809.09 632.00 L 784.16 632.00 C761.85,632.00 759.01,631.82 757.20,630.25 ZM 299.26 471.46 C290.84,469.19 284.67,465.52 279.16,459.48 C276.32,456.38 273.97,453.54 273.92,453.17 C273.76,451.70 273.03,449.31 271.59,445.50 C267.08,433.51 273.04,414.11 284.17,404.59 C289.96,399.63 298.36,395.49 308.50,392.60 C316.33,390.37 319.38,390.04 332.00,390.06 C339.98,390.08 348.08,390.18 350.00,390.30 L 353.50 390.50 L 353.79 379.52 C354.03,370.25 353.74,367.64 351.91,362.75 C347.35,350.57 335.96,346.73 326.49,354.19 C323.91,356.22 320.42,362.85 318.07,370.18 C317.42,372.21 315.11,375.47 312.94,377.43 C309.21,380.80 308.61,381.00 302.03,381.00 C295.65,381.00 294.77,380.74 291.48,377.85 C286.81,373.74 284.99,370.09 285.02,364.80 C285.08,353.51 295.67,342.06 312.31,335.29 C319.05,332.56 333.28,330.04 342.00,330.04 C350.85,330.03 364.16,332.63 370.35,335.56 C378.52,339.43 387.11,348.42 390.67,356.82 L 393.50 363.50 L 394.00 404.18 C394.49,443.82 394.55,444.93 396.64,447.68 C398.53,450.17 399.34,450.47 403.55,450.24 C414.58,449.64 415.00,459.14 404.30,467.01 C395.50,473.48 381.28,474.56 370.70,469.55 C365.25,466.97 358.00,460.02 358.00,457.38 C358.00,454.44 355.63,455.14 350.77,459.51 C340.80,468.48 328.13,473.04 313.50,472.93 C308.55,472.90 302.14,472.23 299.26,471.46 ZM 339.94 447.66 C343.81,446.68 349.22,441.73 351.68,436.92 C353.65,433.08 353.95,430.95 353.97,420.70 L 354.00 408.90 L 350.60 407.48 C345.02,405.14 339.47,404.69 332.58,405.99 C317.53,408.82 310.02,419.77 313.09,434.38 C315.55,446.08 325.89,451.20 339.94,447.66 ZM 581.35 471.04 C569.58,468.07 562.48,461.81 557.49,450.00 C555.74,445.87 555.54,441.72 555.04,399.00 C554.74,373.42 554.14,351.94 553.69,351.25 C553.19,350.47 550.54,350.00 546.66,350.00 C538.59,350.00 536.31,348.47 536.31,343.05 C536.31,338.24 537.14,337.42 545.50,334.05 C557.35,329.26 567.78,319.14 579.28,301.28 C584.71,292.83 587.62,291.36 591.56,295.05 C593.97,297.32 594.00,297.56 594.00,315.17 C594.00,328.68 594.30,333.04 595.25,333.16 C595.94,333.24 602.95,333.36 610.83,333.41 L 625.16 333.50 L 627.67 336.41 C630.62,339.83 630.31,343.98 626.83,347.68 C624.82,349.82 623.83,349.97 609.60,350.22 L 594.50 350.50 L 594.28 392.50 C594.07,432.88 594.14,434.65 596.09,438.68 C600.35,447.48 609.32,449.21 619.12,443.12 C621.88,441.40 624.75,440.00 625.49,440.00 C628.00,440.00 630.00,443.09 630.00,446.96 C630.00,456.25 616.44,468.13 602.21,471.31 C592.90,473.39 590.57,473.36 581.35,471.04 ZM 684.50 471.46 C675.58,469.53 662.76,463.30 656.65,457.92 C648.01,450.31 641.80,439.53 637.69,425.00 C634.64,414.20 634.75,395.79 637.94,384.00 C645.74,355.14 665.83,335.64 692.15,331.35 C700.77,329.95 704.30,329.98 716.56,331.55 C720.00,331.99 730.21,336.44 733.41,338.90 C737.96,342.39 745.27,350.62 747.23,354.45 C754.04,367.76 753.48,382.63 745.89,389.99 C742.27,393.51 732.63,397.69 726.30,398.49 C724.64,398.70 719.84,399.80 715.64,400.94 C697.11,405.94 693.25,406.90 689.27,407.48 C686.94,407.81 683.34,408.69 681.27,409.42 C676.70,411.04 676.65,412.69 680.96,421.51 C684.76,429.30 691.90,436.39 699.79,440.21 C705.58,443.00 706.93,443.25 716.55,443.25 C726.47,443.25 727.36,443.07 733.62,439.88 C737.26,438.02 743.06,433.91 746.52,430.75 C749.98,427.59 753.46,425.00 754.25,425.00 C758.77,425.00 760.58,433.72 757.00,438.27 C755.90,439.67 755.00,441.10 755.00,441.45 C755.00,441.80 753.25,444.46 751.11,447.35 C743.20,458.05 731.89,466.01 718.61,470.20 C710.26,472.83 693.69,473.44 684.50,471.46 ZM 687.42 392.02 C691.22,390.94 696.16,389.77 698.41,389.44 C700.66,389.11 704.66,387.91 707.30,386.77 C714.09,383.86 715.31,381.04 714.82,369.51 C714.45,360.89 714.22,360.07 711.10,356.13 C706.73,350.60 703.74,349.24 697.05,349.70 C687.70,350.36 682.51,355.22 677.50,368.01 C675.02,374.33 673.11,389.24 674.36,392.50 C675.14,394.53 679.15,394.39 687.42,392.02 ZM 421.17 467.69 C418.54,464.88 418.33,459.95 420.75,457.78 C430.27,449.25 430.79,448.54 431.48,442.97 C431.86,439.96 432.01,421.75 431.81,402.50 C431.42,362.84 431.29,362.10 424.04,357.52 C419.41,354.60 417.61,351.15 418.92,347.71 C420.12,344.54 421.29,343.75 431.00,339.52 C435.67,337.48 440.36,335.35 441.41,334.79 C445.41,332.67 454.45,330.00 457.61,330.00 C459.42,330.00 462.00,330.50 463.33,331.10 C466.26,332.44 470.00,338.78 470.00,342.42 C470.00,346.90 472.71,346.69 477.83,341.83 C488.23,331.93 497.79,328.52 508.43,330.90 C524.22,334.43 532.55,351.48 525.45,365.72 C522.07,372.51 517.63,375.80 510.84,376.54 C503.92,377.30 499.73,375.10 495.00,368.23 C491.37,362.96 488.55,361.00 484.58,361.00 C480.93,361.00 474.67,368.55 472.16,376.00 C470.14,381.96 470.00,384.32 470.01,411.44 C470.01,428.48 470.44,442.05 471.05,444.25 C472.13,448.11 478.27,455.00 480.65,455.00 C482.98,455.00 486.00,458.88 486.00,461.87 C486.00,463.44 485.07,465.92 483.93,467.37 L 481.85 470.00 L 452.60 470.00 L 423.35 470.00 L 421.17 467.69 Z" fill="rgba(0,0,0,1)"></path>
</g>
</svg>